<mxfile host="app.diagrams.net" modified="2020-11-22T18:30:49.179Z" agent="5.0 (X11; Linux x86_64) AppleWebKit/537.36 (KHTML, like Gecko) Chrome/84.0.4147.105 Safari/537.36" etag="0f9L2C1alhEBTZGdxCNj" version="13.10.0" type="github">
  <diagram id="R2lEEEUBdFMjLlhIrx00" name="Page-1">
    <mxGraphModel dx="3580" dy="1322" grid="1" gridSize="10" guides="1" tooltips="1" connect="1" arrows="1" fold="1" page="1" pageScale="1" pageWidth="850" pageHeight="1100" math="0" shadow="0" extFonts="Permanent Marker^https://fonts.googleapis.com/css?family=Permanent+Marker">
      <root>
        <mxCell id="0" />
        <mxCell id="1" parent="0" />
        <mxCell id="EKLjl7u4k93-TANrDsAA-10" style="edgeStyle=elbowEdgeStyle;rounded=0;orthogonalLoop=1;jettySize=auto;html=1;exitX=0;exitY=0;exitDx=0;exitDy=0;entryX=0.5;entryY=1;entryDx=0;entryDy=0;startArrow=none;startFill=0;endArrow=none;endFill=0;" edge="1" parent="1" source="EKLjl7u4k93-TANrDsAA-1" target="EKLjl7u4k93-TANrDsAA-3">
          <mxGeometry relative="1" as="geometry" />
        </mxCell>
        <mxCell id="EKLjl7u4k93-TANrDsAA-20" style="edgeStyle=elbowEdgeStyle;rounded=0;orthogonalLoop=1;jettySize=auto;html=1;exitX=1;exitY=0.25;exitDx=0;exitDy=0;entryX=0;entryY=0.5;entryDx=0;entryDy=0;startArrow=none;startFill=0;endArrow=none;endFill=0;" edge="1" parent="1" source="EKLjl7u4k93-TANrDsAA-1" target="EKLjl7u4k93-TANrDsAA-19">
          <mxGeometry relative="1" as="geometry" />
        </mxCell>
        <mxCell id="EKLjl7u4k93-TANrDsAA-22" style="edgeStyle=elbowEdgeStyle;rounded=0;orthogonalLoop=1;jettySize=auto;html=1;exitX=1;exitY=0.75;exitDx=0;exitDy=0;entryX=0;entryY=0.5;entryDx=0;entryDy=0;startArrow=none;startFill=0;endArrow=none;endFill=0;" edge="1" parent="1" source="EKLjl7u4k93-TANrDsAA-1" target="EKLjl7u4k93-TANrDsAA-21">
          <mxGeometry relative="1" as="geometry" />
        </mxCell>
        <mxCell id="EKLjl7u4k93-TANrDsAA-1" value="&lt;font style=&quot;font-size: 48px&quot;&gt;User&lt;/font&gt;" style="whiteSpace=wrap;html=1;align=center;" vertex="1" parent="1">
          <mxGeometry x="195" y="200" width="245" height="120" as="geometry" />
        </mxCell>
        <mxCell id="EKLjl7u4k93-TANrDsAA-8" style="edgeStyle=elbowEdgeStyle;rounded=0;orthogonalLoop=1;jettySize=auto;html=1;exitX=0.5;exitY=0;exitDx=0;exitDy=0;entryX=0.5;entryY=1;entryDx=0;entryDy=0;startArrow=none;startFill=0;endArrow=none;endFill=0;" edge="1" parent="1" source="EKLjl7u4k93-TANrDsAA-3" target="EKLjl7u4k93-TANrDsAA-5">
          <mxGeometry relative="1" as="geometry" />
        </mxCell>
        <mxCell id="EKLjl7u4k93-TANrDsAA-9" style="edgeStyle=elbowEdgeStyle;rounded=0;orthogonalLoop=1;jettySize=auto;html=1;exitX=0;exitY=0.5;exitDx=0;exitDy=0;entryX=0.5;entryY=1;entryDx=0;entryDy=0;startArrow=none;startFill=0;endArrow=none;endFill=0;" edge="1" parent="1" source="EKLjl7u4k93-TANrDsAA-3" target="EKLjl7u4k93-TANrDsAA-4">
          <mxGeometry relative="1" as="geometry" />
        </mxCell>
        <mxCell id="EKLjl7u4k93-TANrDsAA-3" value="name" style="ellipse;whiteSpace=wrap;html=1;align=center;" vertex="1" parent="1">
          <mxGeometry x="130" y="140" width="100" height="40" as="geometry" />
        </mxCell>
        <mxCell id="EKLjl7u4k93-TANrDsAA-4" value="last_name" style="ellipse;whiteSpace=wrap;html=1;align=center;" vertex="1" parent="1">
          <mxGeometry y="80" width="100" height="40" as="geometry" />
        </mxCell>
        <mxCell id="EKLjl7u4k93-TANrDsAA-5" value="first_name" style="ellipse;whiteSpace=wrap;html=1;align=center;" vertex="1" parent="1">
          <mxGeometry x="120" y="40" width="100" height="40" as="geometry" />
        </mxCell>
        <mxCell id="EKLjl7u4k93-TANrDsAA-6" style="edgeStyle=elbowEdgeStyle;rounded=0;orthogonalLoop=1;jettySize=auto;html=1;exitX=0.5;exitY=0;exitDx=0;exitDy=0;startArrow=ERoneToMany;startFill=0;" edge="1" parent="1" source="EKLjl7u4k93-TANrDsAA-5" target="EKLjl7u4k93-TANrDsAA-5">
          <mxGeometry relative="1" as="geometry" />
        </mxCell>
        <mxCell id="EKLjl7u4k93-TANrDsAA-7" style="edgeStyle=elbowEdgeStyle;rounded=0;orthogonalLoop=1;jettySize=auto;html=1;exitX=0.5;exitY=1;exitDx=0;exitDy=0;startArrow=ERoneToMany;startFill=0;" edge="1" parent="1" source="EKLjl7u4k93-TANrDsAA-4" target="EKLjl7u4k93-TANrDsAA-4">
          <mxGeometry relative="1" as="geometry" />
        </mxCell>
        <mxCell id="EKLjl7u4k93-TANrDsAA-12" style="edgeStyle=elbowEdgeStyle;rounded=0;orthogonalLoop=1;jettySize=auto;html=1;exitX=0.5;exitY=1;exitDx=0;exitDy=0;entryX=0.5;entryY=0;entryDx=0;entryDy=0;startArrow=none;startFill=0;endArrow=none;endFill=0;" edge="1" parent="1" source="EKLjl7u4k93-TANrDsAA-11" target="EKLjl7u4k93-TANrDsAA-1">
          <mxGeometry relative="1" as="geometry" />
        </mxCell>
        <mxCell id="EKLjl7u4k93-TANrDsAA-11" value="&lt;span style=&quot;border-bottom: 1px dotted&quot;&gt;password&lt;/span&gt;" style="ellipse;whiteSpace=wrap;html=1;align=center;" vertex="1" parent="1">
          <mxGeometry x="250" y="70" width="100" height="40" as="geometry" />
        </mxCell>
        <mxCell id="EKLjl7u4k93-TANrDsAA-17" style="edgeStyle=elbowEdgeStyle;rounded=0;orthogonalLoop=1;jettySize=auto;html=1;exitX=0;exitY=0.5;exitDx=0;exitDy=0;entryX=1;entryY=0;entryDx=0;entryDy=0;startArrow=none;startFill=0;endArrow=none;endFill=0;" edge="1" parent="1" source="EKLjl7u4k93-TANrDsAA-14" target="EKLjl7u4k93-TANrDsAA-1">
          <mxGeometry relative="1" as="geometry" />
        </mxCell>
        <mxCell id="EKLjl7u4k93-TANrDsAA-14" value="email" style="ellipse;whiteSpace=wrap;html=1;align=center;" vertex="1" parent="1">
          <mxGeometry x="440" y="150" width="100" height="40" as="geometry" />
        </mxCell>
        <mxCell id="EKLjl7u4k93-TANrDsAA-18" style="edgeStyle=elbowEdgeStyle;rounded=0;orthogonalLoop=1;jettySize=auto;html=1;exitX=0.5;exitY=1;exitDx=0;exitDy=0;entryX=0.75;entryY=0;entryDx=0;entryDy=0;startArrow=none;startFill=0;endArrow=none;endFill=0;" edge="1" parent="1" source="EKLjl7u4k93-TANrDsAA-15" target="EKLjl7u4k93-TANrDsAA-1">
          <mxGeometry relative="1" as="geometry" />
        </mxCell>
        <mxCell id="EKLjl7u4k93-TANrDsAA-15" value="gender" style="ellipse;whiteSpace=wrap;html=1;align=center;" vertex="1" parent="1">
          <mxGeometry x="360" y="80" width="100" height="40" as="geometry" />
        </mxCell>
        <mxCell id="EKLjl7u4k93-TANrDsAA-19" value="address" style="ellipse;whiteSpace=wrap;html=1;align=center;" vertex="1" parent="1">
          <mxGeometry x="510" y="210" width="100" height="40" as="geometry" />
        </mxCell>
        <mxCell id="EKLjl7u4k93-TANrDsAA-21" value="mobile_number" style="ellipse;shape=doubleEllipse;margin=3;whiteSpace=wrap;html=1;align=center;" vertex="1" parent="1">
          <mxGeometry x="510" y="280" width="100" height="40" as="geometry" />
        </mxCell>
        <mxCell id="EKLjl7u4k93-TANrDsAA-24" style="edgeStyle=elbowEdgeStyle;rounded=0;orthogonalLoop=1;jettySize=auto;html=1;exitX=1;exitY=0.5;exitDx=0;exitDy=0;entryX=0;entryY=0.5;entryDx=0;entryDy=0;startArrow=none;startFill=0;endArrow=none;endFill=0;" edge="1" parent="1" source="EKLjl7u4k93-TANrDsAA-23" target="EKLjl7u4k93-TANrDsAA-1">
          <mxGeometry relative="1" as="geometry" />
        </mxCell>
        <mxCell id="EKLjl7u4k93-TANrDsAA-23" value="id" style="ellipse;whiteSpace=wrap;html=1;align=center;fontStyle=4;" vertex="1" parent="1">
          <mxGeometry x="10" y="200" width="100" height="40" as="geometry" />
        </mxCell>
        <mxCell id="EKLjl7u4k93-TANrDsAA-26" style="edgeStyle=elbowEdgeStyle;rounded=0;orthogonalLoop=1;jettySize=auto;html=1;exitX=0.5;exitY=0;exitDx=0;exitDy=0;entryX=0.5;entryY=1;entryDx=0;entryDy=0;startArrow=none;startFill=0;endArrow=none;endFill=0;fontSize=20;shape=link;" edge="1" parent="1" source="EKLjl7u4k93-TANrDsAA-25" target="EKLjl7u4k93-TANrDsAA-1">
          <mxGeometry relative="1" as="geometry" />
        </mxCell>
        <mxCell id="EKLjl7u4k93-TANrDsAA-25" value="D" style="ellipse;fillColor=#ffffff;strokeColor=#000000;fontSize=20;" vertex="1" parent="1">
          <mxGeometry x="282.5" y="390" width="70" height="70" as="geometry" />
        </mxCell>
        <mxCell id="EKLjl7u4k93-TANrDsAA-55" style="edgeStyle=elbowEdgeStyle;rounded=0;orthogonalLoop=1;jettySize=auto;html=1;exitX=1;exitY=0.5;exitDx=0;exitDy=0;entryX=0;entryY=0.5;entryDx=0;entryDy=0;startArrow=none;startFill=0;endArrow=none;endFill=0;fontSize=20;" edge="1" parent="1" source="EKLjl7u4k93-TANrDsAA-27" target="EKLjl7u4k93-TANrDsAA-54">
          <mxGeometry relative="1" as="geometry" />
        </mxCell>
        <mxCell id="EKLjl7u4k93-TANrDsAA-27" value="Instructor" style="whiteSpace=wrap;html=1;align=center;fontSize=20;" vertex="1" parent="1">
          <mxGeometry x="490" y="560" width="100" height="40" as="geometry" />
        </mxCell>
        <mxCell id="EKLjl7u4k93-TANrDsAA-28" value="Admin" style="whiteSpace=wrap;html=1;align=center;fontSize=20;" vertex="1" parent="1">
          <mxGeometry x="270" y="560" width="100" height="40" as="geometry" />
        </mxCell>
        <mxCell id="EKLjl7u4k93-TANrDsAA-39" style="edgeStyle=elbowEdgeStyle;rounded=0;orthogonalLoop=1;jettySize=auto;html=1;exitX=0.5;exitY=0;exitDx=0;exitDy=0;entryX=1;entryY=0.5;entryDx=0;entryDy=0;entryPerimeter=0;startArrow=none;startFill=0;endArrow=none;endFill=0;fontSize=20;" edge="1" parent="1" source="EKLjl7u4k93-TANrDsAA-29" target="EKLjl7u4k93-TANrDsAA-38">
          <mxGeometry relative="1" as="geometry">
            <Array as="points">
              <mxPoint x="120" y="530" />
            </Array>
          </mxGeometry>
        </mxCell>
        <mxCell id="EKLjl7u4k93-TANrDsAA-29" value="Student" style="whiteSpace=wrap;html=1;align=center;fontSize=20;" vertex="1" parent="1">
          <mxGeometry x="90" y="560" width="100" height="40" as="geometry" />
        </mxCell>
        <mxCell id="EKLjl7u4k93-TANrDsAA-40" style="edgeStyle=elbowEdgeStyle;rounded=0;orthogonalLoop=1;jettySize=auto;html=1;exitX=0;exitY=0.5;exitDx=0;exitDy=0;exitPerimeter=0;entryX=0;entryY=0.5;entryDx=0;entryDy=0;startArrow=none;startFill=0;endArrow=none;endFill=0;fontSize=20;" edge="1" parent="1" source="EKLjl7u4k93-TANrDsAA-38" target="EKLjl7u4k93-TANrDsAA-25">
          <mxGeometry relative="1" as="geometry">
            <Array as="points">
              <mxPoint x="120" y="410" />
            </Array>
          </mxGeometry>
        </mxCell>
        <mxCell id="EKLjl7u4k93-TANrDsAA-38" value="" style="shape=requiredInterface;html=1;verticalLabelPosition=bottom;fontSize=20;direction=south;" vertex="1" parent="1">
          <mxGeometry x="110" y="470" width="20" height="20" as="geometry" />
        </mxCell>
        <mxCell id="EKLjl7u4k93-TANrDsAA-44" value="" style="edgeStyle=elbowEdgeStyle;rounded=0;orthogonalLoop=1;jettySize=auto;html=1;startArrow=none;startFill=0;endArrow=none;endFill=0;fontSize=20;" edge="1" parent="1" source="EKLjl7u4k93-TANrDsAA-42" target="EKLjl7u4k93-TANrDsAA-28">
          <mxGeometry relative="1" as="geometry" />
        </mxCell>
        <mxCell id="EKLjl7u4k93-TANrDsAA-45" style="edgeStyle=elbowEdgeStyle;rounded=0;orthogonalLoop=1;jettySize=auto;html=1;exitX=0;exitY=0.5;exitDx=0;exitDy=0;exitPerimeter=0;entryX=0.5;entryY=1;entryDx=0;entryDy=0;startArrow=none;startFill=0;endArrow=none;endFill=0;fontSize=20;" edge="1" parent="1" source="EKLjl7u4k93-TANrDsAA-42" target="EKLjl7u4k93-TANrDsAA-25">
          <mxGeometry relative="1" as="geometry" />
        </mxCell>
        <mxCell id="EKLjl7u4k93-TANrDsAA-42" value="" style="shape=requiredInterface;html=1;verticalLabelPosition=bottom;fontSize=20;direction=south;" vertex="1" parent="1">
          <mxGeometry x="307.5" y="500" width="20" height="20" as="geometry" />
        </mxCell>
        <mxCell id="EKLjl7u4k93-TANrDsAA-48" style="edgeStyle=elbowEdgeStyle;rounded=0;orthogonalLoop=1;jettySize=auto;html=1;exitX=1;exitY=0.5;exitDx=0;exitDy=0;exitPerimeter=0;startArrow=none;startFill=0;endArrow=none;endFill=0;fontSize=20;" edge="1" parent="1" source="EKLjl7u4k93-TANrDsAA-46" target="EKLjl7u4k93-TANrDsAA-27">
          <mxGeometry relative="1" as="geometry" />
        </mxCell>
        <mxCell id="EKLjl7u4k93-TANrDsAA-49" style="edgeStyle=elbowEdgeStyle;rounded=0;orthogonalLoop=1;jettySize=auto;html=1;exitX=0;exitY=0.5;exitDx=0;exitDy=0;exitPerimeter=0;entryX=1;entryY=0.5;entryDx=0;entryDy=0;startArrow=none;startFill=0;endArrow=none;endFill=0;fontSize=20;" edge="1" parent="1" source="EKLjl7u4k93-TANrDsAA-46" target="EKLjl7u4k93-TANrDsAA-25">
          <mxGeometry relative="1" as="geometry">
            <Array as="points">
              <mxPoint x="540" y="450" />
            </Array>
          </mxGeometry>
        </mxCell>
        <mxCell id="EKLjl7u4k93-TANrDsAA-46" value="" style="shape=requiredInterface;html=1;verticalLabelPosition=bottom;fontSize=20;direction=south;" vertex="1" parent="1">
          <mxGeometry x="530" y="500" width="20" height="20" as="geometry" />
        </mxCell>
        <mxCell id="EKLjl7u4k93-TANrDsAA-52" style="edgeStyle=elbowEdgeStyle;rounded=0;orthogonalLoop=1;jettySize=auto;html=1;exitX=1;exitY=0.5;exitDx=0;exitDy=0;entryX=0;entryY=0.5;entryDx=0;entryDy=0;startArrow=none;startFill=0;endArrow=none;endFill=0;fontSize=20;" edge="1" parent="1" target="EKLjl7u4k93-TANrDsAA-29">
          <mxGeometry relative="1" as="geometry">
            <mxPoint x="30.000000000003865" y="580" as="sourcePoint" />
          </mxGeometry>
        </mxCell>
        <mxCell id="EKLjl7u4k93-TANrDsAA-53" value="gpa" style="ellipse;whiteSpace=wrap;html=1;align=center;dashed=1;fontSize=20;" vertex="1" parent="1">
          <mxGeometry x="-70" y="560" width="100" height="40" as="geometry" />
        </mxCell>
        <mxCell id="EKLjl7u4k93-TANrDsAA-54" value="rating" style="ellipse;whiteSpace=wrap;html=1;align=center;dashed=1;fontSize=20;" vertex="1" parent="1">
          <mxGeometry x="650" y="560" width="100" height="40" as="geometry" />
        </mxCell>
        <mxCell id="EKLjl7u4k93-TANrDsAA-57" value="&lt;font style=&quot;font-size: 48px&quot;&gt;Course&lt;/font&gt;" style="whiteSpace=wrap;html=1;align=center;" vertex="1" parent="1">
          <mxGeometry x="-1422.5" y="270" width="245" height="120" as="geometry" />
        </mxCell>
        <mxCell id="EKLjl7u4k93-TANrDsAA-59" style="edgeStyle=elbowEdgeStyle;rounded=0;orthogonalLoop=1;jettySize=auto;html=1;exitX=1;exitY=0.5;exitDx=0;exitDy=0;entryX=0;entryY=0.5;entryDx=0;entryDy=0;startArrow=none;startFill=0;endArrow=none;endFill=0;fontSize=20;" edge="1" parent="1" source="EKLjl7u4k93-TANrDsAA-58" target="EKLjl7u4k93-TANrDsAA-57">
          <mxGeometry relative="1" as="geometry" />
        </mxCell>
        <mxCell id="EKLjl7u4k93-TANrDsAA-58" value="id" style="ellipse;whiteSpace=wrap;html=1;align=center;fontStyle=4;" vertex="1" parent="1">
          <mxGeometry x="-1595" y="210" width="100" height="40" as="geometry" />
        </mxCell>
        <mxCell id="EKLjl7u4k93-TANrDsAA-61" style="edgeStyle=elbowEdgeStyle;rounded=0;orthogonalLoop=1;jettySize=auto;html=1;exitX=1;exitY=0.5;exitDx=0;exitDy=0;entryX=0;entryY=0.25;entryDx=0;entryDy=0;startArrow=none;startFill=0;endArrow=none;endFill=0;fontSize=20;" edge="1" parent="1" source="EKLjl7u4k93-TANrDsAA-60" target="EKLjl7u4k93-TANrDsAA-57">
          <mxGeometry relative="1" as="geometry" />
        </mxCell>
        <mxCell id="EKLjl7u4k93-TANrDsAA-60" value="name" style="ellipse;whiteSpace=wrap;html=1;align=center;" vertex="1" parent="1">
          <mxGeometry x="-1540" y="150" width="100" height="40" as="geometry" />
        </mxCell>
        <mxCell id="EKLjl7u4k93-TANrDsAA-63" style="edgeStyle=elbowEdgeStyle;rounded=0;orthogonalLoop=1;jettySize=auto;html=1;exitX=0.5;exitY=1;exitDx=0;exitDy=0;entryX=0.25;entryY=0;entryDx=0;entryDy=0;startArrow=none;startFill=0;endArrow=none;endFill=0;fontSize=20;" edge="1" parent="1" source="EKLjl7u4k93-TANrDsAA-62" target="EKLjl7u4k93-TANrDsAA-57">
          <mxGeometry relative="1" as="geometry">
            <Array as="points">
              <mxPoint x="-1336" y="220" />
            </Array>
          </mxGeometry>
        </mxCell>
        <mxCell id="EKLjl7u4k93-TANrDsAA-62" value="credit_hours" style="ellipse;whiteSpace=wrap;html=1;align=center;" vertex="1" parent="1">
          <mxGeometry x="-1440" y="110" width="100" height="40" as="geometry" />
        </mxCell>
        <mxCell id="EKLjl7u4k93-TANrDsAA-65" style="edgeStyle=elbowEdgeStyle;rounded=0;orthogonalLoop=1;jettySize=auto;html=1;exitX=0.5;exitY=1;exitDx=0;exitDy=0;entryX=0.5;entryY=0;entryDx=0;entryDy=0;startArrow=none;startFill=0;endArrow=none;endFill=0;fontSize=20;" edge="1" parent="1" source="EKLjl7u4k93-TANrDsAA-64" target="EKLjl7u4k93-TANrDsAA-57">
          <mxGeometry relative="1" as="geometry" />
        </mxCell>
        <mxCell id="EKLjl7u4k93-TANrDsAA-64" value="description" style="ellipse;whiteSpace=wrap;html=1;align=center;" vertex="1" parent="1">
          <mxGeometry x="-1330" y="130" width="100" height="40" as="geometry" />
        </mxCell>
        <mxCell id="EKLjl7u4k93-TANrDsAA-67" style="edgeStyle=elbowEdgeStyle;rounded=0;orthogonalLoop=1;jettySize=auto;html=1;exitX=0.5;exitY=1;exitDx=0;exitDy=0;entryX=0.702;entryY=-0.003;entryDx=0;entryDy=0;entryPerimeter=0;startArrow=none;startFill=0;endArrow=none;endFill=0;fontSize=20;" edge="1" parent="1" source="EKLjl7u4k93-TANrDsAA-66" target="EKLjl7u4k93-TANrDsAA-57">
          <mxGeometry relative="1" as="geometry" />
        </mxCell>
        <mxCell id="EKLjl7u4k93-TANrDsAA-66" value="price" style="ellipse;whiteSpace=wrap;html=1;align=center;" vertex="1" parent="1">
          <mxGeometry x="-1220" y="140" width="100" height="40" as="geometry" />
        </mxCell>
        <mxCell id="EKLjl7u4k93-TANrDsAA-69" style="edgeStyle=elbowEdgeStyle;rounded=0;orthogonalLoop=1;jettySize=auto;html=1;exitX=0.5;exitY=1;exitDx=0;exitDy=0;entryX=1;entryY=0.25;entryDx=0;entryDy=0;startArrow=none;startFill=0;endArrow=none;endFill=0;fontSize=20;" edge="1" parent="1" source="EKLjl7u4k93-TANrDsAA-68" target="EKLjl7u4k93-TANrDsAA-57">
          <mxGeometry relative="1" as="geometry" />
        </mxCell>
        <mxCell id="EKLjl7u4k93-TANrDsAA-68" value="content" style="ellipse;whiteSpace=wrap;html=1;align=center;" vertex="1" parent="1">
          <mxGeometry x="-1170" y="190" width="100" height="40" as="geometry" />
        </mxCell>
        <mxCell id="EKLjl7u4k93-TANrDsAA-72" style="edgeStyle=elbowEdgeStyle;rounded=0;orthogonalLoop=1;jettySize=auto;html=1;exitX=1;exitY=0.5;exitDx=0;exitDy=0;entryX=0;entryY=0.5;entryDx=0;entryDy=0;startArrow=none;startFill=0;endArrow=none;endFill=0;fontSize=20;" edge="1" parent="1" source="EKLjl7u4k93-TANrDsAA-71" target="EKLjl7u4k93-TANrDsAA-75">
          <mxGeometry relative="1" as="geometry">
            <mxPoint x="-1484.5" y="520.0000000000002" as="targetPoint" />
            <Array as="points" />
          </mxGeometry>
        </mxCell>
        <mxCell id="EKLjl7u4k93-TANrDsAA-71" value="number" style="ellipse;whiteSpace=wrap;html=1;align=center;fontStyle=4;" vertex="1" parent="1">
          <mxGeometry x="-1790" y="580" width="100" height="40" as="geometry" />
        </mxCell>
        <mxCell id="EKLjl7u4k93-TANrDsAA-74" style="edgeStyle=elbowEdgeStyle;rounded=0;orthogonalLoop=1;jettySize=auto;html=1;exitX=1;exitY=0.5;exitDx=0;exitDy=0;startArrow=none;startFill=0;endArrow=none;endFill=0;fontSize=20;entryX=0;entryY=0.75;entryDx=0;entryDy=0;" edge="1" parent="1" source="EKLjl7u4k93-TANrDsAA-73" target="EKLjl7u4k93-TANrDsAA-75">
          <mxGeometry relative="1" as="geometry">
            <mxPoint x="-1480" y="580" as="targetPoint" />
          </mxGeometry>
        </mxCell>
        <mxCell id="EKLjl7u4k93-TANrDsAA-73" value="full_grade" style="ellipse;whiteSpace=wrap;html=1;align=center;" vertex="1" parent="1">
          <mxGeometry x="-1770" y="660" width="100" height="40" as="geometry" />
        </mxCell>
        <mxCell id="EKLjl7u4k93-TANrDsAA-81" style="edgeStyle=elbowEdgeStyle;rounded=0;orthogonalLoop=1;jettySize=auto;html=1;exitX=0.5;exitY=0;exitDx=0;exitDy=0;entryX=1;entryY=0.5;entryDx=0;entryDy=0;startArrow=none;startFill=0;endArrow=none;endFill=0;fontSize=20;" edge="1" parent="1" source="EKLjl7u4k93-TANrDsAA-75" target="EKLjl7u4k93-TANrDsAA-80">
          <mxGeometry relative="1" as="geometry">
            <mxPoint x="-1780" y="489.9999999999998" as="targetPoint" />
          </mxGeometry>
        </mxCell>
        <mxCell id="EKLjl7u4k93-TANrDsAA-83" style="edgeStyle=elbowEdgeStyle;rounded=0;orthogonalLoop=1;jettySize=auto;html=1;exitX=0;exitY=1;exitDx=0;exitDy=0;entryX=0.5;entryY=0;entryDx=0;entryDy=0;startArrow=none;startFill=0;endArrow=none;endFill=0;fontSize=20;" edge="1" parent="1" source="EKLjl7u4k93-TANrDsAA-75" target="EKLjl7u4k93-TANrDsAA-82">
          <mxGeometry relative="1" as="geometry" />
        </mxCell>
        <mxCell id="EKLjl7u4k93-TANrDsAA-152" style="edgeStyle=elbowEdgeStyle;rounded=0;orthogonalLoop=1;jettySize=auto;html=1;exitX=0.75;exitY=1;exitDx=0;exitDy=0;startArrow=none;startFill=0;endArrow=none;endFill=0;fontSize=20;shape=link;" edge="1" parent="1" source="EKLjl7u4k93-TANrDsAA-75" target="EKLjl7u4k93-TANrDsAA-150">
          <mxGeometry relative="1" as="geometry" />
        </mxCell>
        <mxCell id="EKLjl7u4k93-TANrDsAA-75" value="Assignment" style="shape=ext;margin=3;double=1;whiteSpace=wrap;html=1;align=center;fontSize=20;" vertex="1" parent="1">
          <mxGeometry x="-1640" y="620" width="190" height="80" as="geometry" />
        </mxCell>
        <mxCell id="EKLjl7u4k93-TANrDsAA-79" style="edgeStyle=elbowEdgeStyle;rounded=0;orthogonalLoop=1;jettySize=auto;html=1;exitX=1;exitY=0.5;exitDx=0;exitDy=0;startArrow=none;startFill=0;endArrow=none;endFill=0;fontSize=20;" edge="1" parent="1" source="EKLjl7u4k93-TANrDsAA-78">
          <mxGeometry relative="1" as="geometry">
            <mxPoint x="-1620" y="700" as="targetPoint" />
            <Array as="points">
              <mxPoint x="-1530" y="581" />
            </Array>
          </mxGeometry>
        </mxCell>
        <mxCell id="EKLjl7u4k93-TANrDsAA-78" value="weight" style="ellipse;whiteSpace=wrap;html=1;align=center;" vertex="1" parent="1">
          <mxGeometry x="-1630" y="730" width="100" height="40" as="geometry" />
        </mxCell>
        <mxCell id="EKLjl7u4k93-TANrDsAA-80" value="deadline" style="ellipse;whiteSpace=wrap;html=1;align=center;" vertex="1" parent="1">
          <mxGeometry x="-1740" y="510" width="100" height="40" as="geometry" />
        </mxCell>
        <mxCell id="EKLjl7u4k93-TANrDsAA-82" value="content" style="ellipse;whiteSpace=wrap;html=1;align=center;" vertex="1" parent="1">
          <mxGeometry x="-1750" y="740" width="100" height="40" as="geometry" />
        </mxCell>
        <mxCell id="EKLjl7u4k93-TANrDsAA-84" style="edgeStyle=elbowEdgeStyle;rounded=0;orthogonalLoop=1;jettySize=auto;html=1;exitX=0.5;exitY=0;exitDx=0;exitDy=0;startArrow=none;startFill=0;endArrow=none;endFill=0;fontSize=20;" edge="1" parent="1">
          <mxGeometry relative="1" as="geometry">
            <mxPoint x="-1780" y="450" as="sourcePoint" />
            <mxPoint x="-1780" y="450" as="targetPoint" />
          </mxGeometry>
        </mxCell>
        <mxCell id="EKLjl7u4k93-TANrDsAA-93" style="edgeStyle=elbowEdgeStyle;rounded=0;orthogonalLoop=1;jettySize=auto;html=1;exitX=0.5;exitY=0;exitDx=0;exitDy=0;entryX=0.122;entryY=0.997;entryDx=0;entryDy=0;entryPerimeter=0;startArrow=none;startFill=0;endArrow=none;endFill=0;fontSize=20;" edge="1" parent="1" source="EKLjl7u4k93-TANrDsAA-92" target="EKLjl7u4k93-TANrDsAA-57">
          <mxGeometry relative="1" as="geometry">
            <Array as="points">
              <mxPoint x="-1400" y="440" />
            </Array>
          </mxGeometry>
        </mxCell>
        <mxCell id="EKLjl7u4k93-TANrDsAA-94" style="edgeStyle=elbowEdgeStyle;rounded=0;orthogonalLoop=1;jettySize=auto;html=1;exitX=0.5;exitY=1;exitDx=0;exitDy=0;startArrow=none;startFill=0;endArrow=none;endFill=0;fontSize=20;" edge="1" parent="1" source="EKLjl7u4k93-TANrDsAA-92" target="EKLjl7u4k93-TANrDsAA-75">
          <mxGeometry relative="1" as="geometry" />
        </mxCell>
        <mxCell id="EKLjl7u4k93-TANrDsAA-92" value="has" style="shape=rhombus;double=1;perimeter=rhombusPerimeter;whiteSpace=wrap;html=1;align=center;fontSize=20;" vertex="1" parent="1">
          <mxGeometry x="-1570" y="490" width="120" height="60" as="geometry" />
        </mxCell>
        <mxCell id="EKLjl7u4k93-TANrDsAA-96" value="Feedback" style="shape=ext;margin=3;double=1;whiteSpace=wrap;html=1;align=center;fontSize=20;" vertex="1" parent="1">
          <mxGeometry x="-1390" y="610" width="190" height="80" as="geometry" />
        </mxCell>
        <mxCell id="EKLjl7u4k93-TANrDsAA-98" style="edgeStyle=elbowEdgeStyle;rounded=0;orthogonalLoop=1;jettySize=auto;html=1;exitX=0.5;exitY=0;exitDx=0;exitDy=0;entryX=0.5;entryY=1;entryDx=0;entryDy=0;startArrow=none;startFill=0;endArrow=none;endFill=0;fontSize=20;" edge="1" parent="1" source="EKLjl7u4k93-TANrDsAA-97" target="EKLjl7u4k93-TANrDsAA-57">
          <mxGeometry relative="1" as="geometry" />
        </mxCell>
        <mxCell id="EKLjl7u4k93-TANrDsAA-99" style="edgeStyle=elbowEdgeStyle;rounded=0;orthogonalLoop=1;jettySize=auto;html=1;exitX=0.5;exitY=1;exitDx=0;exitDy=0;entryX=0.5;entryY=0;entryDx=0;entryDy=0;startArrow=none;startFill=0;endArrow=none;endFill=0;fontSize=20;" edge="1" parent="1" source="EKLjl7u4k93-TANrDsAA-97" target="EKLjl7u4k93-TANrDsAA-96">
          <mxGeometry relative="1" as="geometry" />
        </mxCell>
        <mxCell id="EKLjl7u4k93-TANrDsAA-97" value="has" style="shape=rhombus;double=1;perimeter=rhombusPerimeter;whiteSpace=wrap;html=1;align=center;fontSize=20;" vertex="1" parent="1">
          <mxGeometry x="-1360" y="490" width="120" height="60" as="geometry" />
        </mxCell>
        <mxCell id="EKLjl7u4k93-TANrDsAA-101" style="edgeStyle=elbowEdgeStyle;rounded=0;orthogonalLoop=1;jettySize=auto;html=1;exitX=0.5;exitY=0;exitDx=0;exitDy=0;entryX=0;entryY=0.5;entryDx=0;entryDy=0;startArrow=none;startFill=0;endArrow=none;endFill=0;fontSize=20;" edge="1" parent="1" source="EKLjl7u4k93-TANrDsAA-100" target="EKLjl7u4k93-TANrDsAA-96">
          <mxGeometry relative="1" as="geometry" />
        </mxCell>
        <mxCell id="EKLjl7u4k93-TANrDsAA-161" value="" style="edgeStyle=elbowEdgeStyle;rounded=0;orthogonalLoop=1;jettySize=auto;html=1;startArrow=none;startFill=0;endArrow=none;endFill=0;fontSize=20;" edge="1" parent="1" source="EKLjl7u4k93-TANrDsAA-100" target="EKLjl7u4k93-TANrDsAA-96">
          <mxGeometry relative="1" as="geometry" />
        </mxCell>
        <mxCell id="EKLjl7u4k93-TANrDsAA-100" value="likes" style="ellipse;whiteSpace=wrap;html=1;align=center;" vertex="1" parent="1">
          <mxGeometry x="-1470" y="740" width="100" height="40" as="geometry" />
        </mxCell>
        <mxCell id="EKLjl7u4k93-TANrDsAA-105" style="edgeStyle=elbowEdgeStyle;rounded=0;orthogonalLoop=1;jettySize=auto;html=1;exitX=0.5;exitY=0;exitDx=0;exitDy=0;entryX=0.25;entryY=1;entryDx=0;entryDy=0;startArrow=none;startFill=0;endArrow=none;endFill=0;fontSize=20;" edge="1" parent="1" source="EKLjl7u4k93-TANrDsAA-104" target="EKLjl7u4k93-TANrDsAA-96">
          <mxGeometry relative="1" as="geometry" />
        </mxCell>
        <mxCell id="EKLjl7u4k93-TANrDsAA-104" value="&lt;font style=&quot;font-size: 12px&quot;&gt;comments&lt;/font&gt;" style="ellipse;shape=doubleEllipse;margin=3;whiteSpace=wrap;html=1;align=center;fontSize=20;" vertex="1" parent="1">
          <mxGeometry x="-1370" y="740" width="100" height="40" as="geometry" />
        </mxCell>
        <mxCell id="EKLjl7u4k93-TANrDsAA-107" style="edgeStyle=elbowEdgeStyle;rounded=0;orthogonalLoop=1;jettySize=auto;html=1;exitX=0.5;exitY=0;exitDx=0;exitDy=0;startArrow=none;startFill=0;endArrow=none;endFill=0;fontSize=20;" edge="1" parent="1" source="EKLjl7u4k93-TANrDsAA-106" target="EKLjl7u4k93-TANrDsAA-96">
          <mxGeometry relative="1" as="geometry">
            <Array as="points">
              <mxPoint x="-1250" y="715" />
            </Array>
          </mxGeometry>
        </mxCell>
        <mxCell id="EKLjl7u4k93-TANrDsAA-106" value="id" style="ellipse;whiteSpace=wrap;html=1;align=center;fontStyle=4;" vertex="1" parent="1">
          <mxGeometry x="-1260" y="740" width="100" height="40" as="geometry" />
        </mxCell>
        <mxCell id="EKLjl7u4k93-TANrDsAA-108" value="Certificate" style="shape=ext;margin=3;double=1;whiteSpace=wrap;html=1;align=center;fontSize=20;" vertex="1" parent="1">
          <mxGeometry x="-1150" y="610" width="190" height="80" as="geometry" />
        </mxCell>
        <mxCell id="EKLjl7u4k93-TANrDsAA-109" style="edgeStyle=elbowEdgeStyle;rounded=0;orthogonalLoop=1;jettySize=auto;html=1;exitX=0.5;exitY=1;exitDx=0;exitDy=0;entryX=0.5;entryY=0;entryDx=0;entryDy=0;startArrow=none;startFill=0;endArrow=none;endFill=0;fontSize=20;" edge="1" parent="1" source="EKLjl7u4k93-TANrDsAA-110" target="EKLjl7u4k93-TANrDsAA-108">
          <mxGeometry relative="1" as="geometry" />
        </mxCell>
        <mxCell id="EKLjl7u4k93-TANrDsAA-116" style="edgeStyle=elbowEdgeStyle;rounded=0;orthogonalLoop=1;jettySize=auto;html=1;exitX=0.5;exitY=0;exitDx=0;exitDy=0;entryX=0.75;entryY=1;entryDx=0;entryDy=0;startArrow=none;startFill=0;endArrow=none;endFill=0;fontSize=20;" edge="1" parent="1" source="EKLjl7u4k93-TANrDsAA-110" target="EKLjl7u4k93-TANrDsAA-57">
          <mxGeometry relative="1" as="geometry">
            <Array as="points">
              <mxPoint x="-1240" y="430" />
            </Array>
          </mxGeometry>
        </mxCell>
        <mxCell id="EKLjl7u4k93-TANrDsAA-110" value="has" style="shape=rhombus;double=1;perimeter=rhombusPerimeter;whiteSpace=wrap;html=1;align=center;fontSize=20;" vertex="1" parent="1">
          <mxGeometry x="-1120" y="490" width="120" height="60" as="geometry" />
        </mxCell>
        <mxCell id="EKLjl7u4k93-TANrDsAA-112" style="edgeStyle=elbowEdgeStyle;rounded=0;orthogonalLoop=1;jettySize=auto;html=1;exitX=0.5;exitY=0;exitDx=0;exitDy=0;entryX=0.25;entryY=1;entryDx=0;entryDy=0;startArrow=none;startFill=0;endArrow=none;endFill=0;fontSize=20;" edge="1" parent="1" source="EKLjl7u4k93-TANrDsAA-118" target="EKLjl7u4k93-TANrDsAA-108">
          <mxGeometry relative="1" as="geometry">
            <mxPoint x="-1080" y="740.0000000000002" as="sourcePoint" />
          </mxGeometry>
        </mxCell>
        <mxCell id="EKLjl7u4k93-TANrDsAA-114" style="edgeStyle=elbowEdgeStyle;rounded=0;orthogonalLoop=1;jettySize=auto;html=1;exitX=0.5;exitY=0;exitDx=0;exitDy=0;startArrow=none;startFill=0;endArrow=none;endFill=0;fontSize=20;" edge="1" parent="1" source="EKLjl7u4k93-TANrDsAA-115" target="EKLjl7u4k93-TANrDsAA-108">
          <mxGeometry relative="1" as="geometry">
            <Array as="points">
              <mxPoint x="-1010" y="715" />
            </Array>
          </mxGeometry>
        </mxCell>
        <mxCell id="EKLjl7u4k93-TANrDsAA-115" value="id" style="ellipse;whiteSpace=wrap;html=1;align=center;fontStyle=4;" vertex="1" parent="1">
          <mxGeometry x="-1040" y="740" width="100" height="40" as="geometry" />
        </mxCell>
        <mxCell id="EKLjl7u4k93-TANrDsAA-118" value="&lt;font style=&quot;font-size: 12px&quot;&gt;date&lt;/font&gt;" style="ellipse;whiteSpace=wrap;html=1;align=center;fontSize=20;" vertex="1" parent="1">
          <mxGeometry x="-1140" y="740" width="100" height="40" as="geometry" />
        </mxCell>
        <mxCell id="EKLjl7u4k93-TANrDsAA-127" style="edgeStyle=elbowEdgeStyle;rounded=0;orthogonalLoop=1;jettySize=auto;html=1;exitX=0.5;exitY=1;exitDx=0;exitDy=0;entryX=0.5;entryY=0;entryDx=0;entryDy=0;startArrow=none;startFill=0;endArrow=none;endFill=0;fontSize=20;" edge="1" parent="1" source="EKLjl7u4k93-TANrDsAA-121" target="EKLjl7u4k93-TANrDsAA-126">
          <mxGeometry relative="1" as="geometry">
            <Array as="points">
              <mxPoint x="-460" y="1480" />
            </Array>
          </mxGeometry>
        </mxCell>
        <mxCell id="EKLjl7u4k93-TANrDsAA-121" value="&lt;font style=&quot;font-size: 41px&quot;&gt;Credit_Card&lt;/font&gt;" style="whiteSpace=wrap;html=1;align=center;" vertex="1" parent="1">
          <mxGeometry x="-625" y="1290" width="245" height="120" as="geometry" />
        </mxCell>
        <mxCell id="EKLjl7u4k93-TANrDsAA-123" style="edgeStyle=elbowEdgeStyle;rounded=0;orthogonalLoop=1;jettySize=auto;html=1;exitX=0.5;exitY=0;exitDx=0;exitDy=0;startArrow=none;startFill=0;endArrow=none;endFill=0;fontSize=20;" edge="1" parent="1" source="EKLjl7u4k93-TANrDsAA-122">
          <mxGeometry relative="1" as="geometry">
            <mxPoint x="-610" y="1410" as="targetPoint" />
            <Array as="points">
              <mxPoint x="-700" y="1470" />
            </Array>
          </mxGeometry>
        </mxCell>
        <mxCell id="EKLjl7u4k93-TANrDsAA-122" value="number" style="ellipse;whiteSpace=wrap;html=1;align=center;fontStyle=4;" vertex="1" parent="1">
          <mxGeometry x="-750" y="1520" width="100" height="40" as="geometry" />
        </mxCell>
        <mxCell id="EKLjl7u4k93-TANrDsAA-125" style="edgeStyle=elbowEdgeStyle;rounded=0;orthogonalLoop=1;jettySize=auto;html=1;exitX=0.5;exitY=0;exitDx=0;exitDy=0;startArrow=none;startFill=0;endArrow=none;endFill=0;fontSize=20;" edge="1" parent="1" source="EKLjl7u4k93-TANrDsAA-124">
          <mxGeometry relative="1" as="geometry">
            <mxPoint x="-564" y="1410" as="targetPoint" />
            <Array as="points">
              <mxPoint x="-564" y="1410" />
              <mxPoint x="-564" y="1270" />
            </Array>
          </mxGeometry>
        </mxCell>
        <mxCell id="EKLjl7u4k93-TANrDsAA-124" value="&lt;font style=&quot;font-size: 12px&quot;&gt;card_holder_name&lt;/font&gt;" style="ellipse;whiteSpace=wrap;html=1;align=center;fontSize=20;" vertex="1" parent="1">
          <mxGeometry x="-630" y="1530" width="130" height="40" as="geometry" />
        </mxCell>
        <mxCell id="EKLjl7u4k93-TANrDsAA-126" value="&lt;font style=&quot;font-size: 12px&quot;&gt;expiry_date&lt;/font&gt;" style="ellipse;whiteSpace=wrap;html=1;align=center;fontSize=20;" vertex="1" parent="1">
          <mxGeometry x="-500" y="1540" width="100" height="40" as="geometry" />
        </mxCell>
        <mxCell id="EKLjl7u4k93-TANrDsAA-129" style="edgeStyle=elbowEdgeStyle;rounded=0;orthogonalLoop=1;jettySize=auto;html=1;exitX=0.5;exitY=0;exitDx=0;exitDy=0;entryX=0.75;entryY=1;entryDx=0;entryDy=0;startArrow=none;startFill=0;endArrow=none;endFill=0;fontSize=20;" edge="1" parent="1" source="EKLjl7u4k93-TANrDsAA-128" target="EKLjl7u4k93-TANrDsAA-121">
          <mxGeometry relative="1" as="geometry" />
        </mxCell>
        <mxCell id="EKLjl7u4k93-TANrDsAA-128" value="&lt;font style=&quot;font-size: 12px&quot;&gt;cvv&lt;/font&gt;" style="ellipse;whiteSpace=wrap;html=1;align=center;fontSize=20;" vertex="1" parent="1">
          <mxGeometry x="-395" y="1550" width="100" height="40" as="geometry" />
        </mxCell>
        <mxCell id="EKLjl7u4k93-TANrDsAA-176" style="edgeStyle=elbowEdgeStyle;rounded=0;orthogonalLoop=1;jettySize=auto;html=1;exitX=0.25;exitY=1;exitDx=0;exitDy=0;entryX=0.5;entryY=0;entryDx=0;entryDy=0;startArrow=none;startFill=0;endArrow=none;endFill=0;fontSize=20;" edge="1" parent="1" source="EKLjl7u4k93-TANrDsAA-132" target="EKLjl7u4k93-TANrDsAA-136">
          <mxGeometry relative="1" as="geometry" />
        </mxCell>
        <mxCell id="EKLjl7u4k93-TANrDsAA-177" style="edgeStyle=elbowEdgeStyle;rounded=0;orthogonalLoop=1;jettySize=auto;html=1;exitX=0.5;exitY=1;exitDx=0;exitDy=0;entryX=0.5;entryY=0;entryDx=0;entryDy=0;startArrow=none;startFill=0;endArrow=none;endFill=0;fontSize=20;" edge="1" parent="1" source="EKLjl7u4k93-TANrDsAA-132" target="EKLjl7u4k93-TANrDsAA-137">
          <mxGeometry relative="1" as="geometry">
            <Array as="points">
              <mxPoint x="580" y="1610" />
            </Array>
          </mxGeometry>
        </mxCell>
        <mxCell id="EKLjl7u4k93-TANrDsAA-178" style="edgeStyle=elbowEdgeStyle;rounded=0;orthogonalLoop=1;jettySize=auto;html=1;exitX=0.75;exitY=1;exitDx=0;exitDy=0;entryX=0.5;entryY=0;entryDx=0;entryDy=0;startArrow=none;startFill=0;endArrow=none;endFill=0;fontSize=20;" edge="1" parent="1" source="EKLjl7u4k93-TANrDsAA-132" target="EKLjl7u4k93-TANrDsAA-139">
          <mxGeometry relative="1" as="geometry">
            <Array as="points">
              <mxPoint x="700" y="1600" />
            </Array>
          </mxGeometry>
        </mxCell>
        <mxCell id="EKLjl7u4k93-TANrDsAA-132" value="&lt;font style=&quot;font-size: 41px&quot;&gt;Promo_Code&lt;/font&gt;" style="whiteSpace=wrap;html=1;align=center;" vertex="1" parent="1">
          <mxGeometry x="425" y="1410" width="245" height="120" as="geometry" />
        </mxCell>
        <mxCell id="EKLjl7u4k93-TANrDsAA-133" style="edgeStyle=elbowEdgeStyle;rounded=0;orthogonalLoop=1;jettySize=auto;html=1;exitX=1;exitY=0.5;exitDx=0;exitDy=0;startArrow=none;startFill=0;endArrow=none;endFill=0;fontSize=20;entryX=0;entryY=1;entryDx=0;entryDy=0;" edge="1" parent="1" source="EKLjl7u4k93-TANrDsAA-134" target="EKLjl7u4k93-TANrDsAA-132">
          <mxGeometry relative="1" as="geometry" />
        </mxCell>
        <mxCell id="EKLjl7u4k93-TANrDsAA-134" value="code" style="ellipse;whiteSpace=wrap;html=1;align=center;fontStyle=4;" vertex="1" parent="1">
          <mxGeometry x="252.5" y="1660" width="100" height="40" as="geometry" />
        </mxCell>
        <mxCell id="EKLjl7u4k93-TANrDsAA-136" value="&lt;font style=&quot;font-size: 12px&quot;&gt;expiry_date&lt;/font&gt;" style="ellipse;whiteSpace=wrap;html=1;align=center;fontSize=20;" vertex="1" parent="1">
          <mxGeometry x="400" y="1670" width="130" height="40" as="geometry" />
        </mxCell>
        <mxCell id="EKLjl7u4k93-TANrDsAA-137" value="&lt;font style=&quot;font-size: 12px&quot;&gt;issue_date&lt;/font&gt;" style="ellipse;whiteSpace=wrap;html=1;align=center;fontSize=20;" vertex="1" parent="1">
          <mxGeometry x="530" y="1670" width="100" height="40" as="geometry" />
        </mxCell>
        <mxCell id="EKLjl7u4k93-TANrDsAA-139" value="&lt;font style=&quot;font-size: 12px&quot;&gt;discount_amount&lt;/font&gt;" style="ellipse;whiteSpace=wrap;html=1;align=center;fontSize=20;" vertex="1" parent="1">
          <mxGeometry x="660" y="1650" width="100" height="40" as="geometry" />
        </mxCell>
        <mxCell id="EKLjl7u4k93-TANrDsAA-150" value="D" style="ellipse;fillColor=#ffffff;strokeColor=#000000;fontSize=20;" vertex="1" parent="1">
          <mxGeometry x="-1530" y="820" width="70" height="70" as="geometry" />
        </mxCell>
        <mxCell id="EKLjl7u4k93-TANrDsAA-163" style="edgeStyle=elbowEdgeStyle;rounded=0;orthogonalLoop=1;jettySize=auto;html=1;exitX=0.5;exitY=0;exitDx=0;exitDy=0;entryX=1;entryY=0.5;entryDx=0;entryDy=0;entryPerimeter=0;startArrow=none;startFill=0;endArrow=none;endFill=0;fontSize=20;" edge="1" parent="1" source="EKLjl7u4k93-TANrDsAA-153" target="EKLjl7u4k93-TANrDsAA-160">
          <mxGeometry relative="1" as="geometry" />
        </mxCell>
        <mxCell id="EKLjl7u4k93-TANrDsAA-153" value="Exam" style="html=1;fontSize=20;" vertex="1" parent="1">
          <mxGeometry x="-1730" y="970" width="110" height="50" as="geometry" />
        </mxCell>
        <mxCell id="EKLjl7u4k93-TANrDsAA-154" value="Quiz" style="html=1;fontSize=20;" vertex="1" parent="1">
          <mxGeometry x="-1550" y="970" width="110" height="50" as="geometry" />
        </mxCell>
        <mxCell id="EKLjl7u4k93-TANrDsAA-155" value="Project" style="html=1;fontSize=20;" vertex="1" parent="1">
          <mxGeometry x="-1360" y="970" width="110" height="50" as="geometry" />
        </mxCell>
        <mxCell id="EKLjl7u4k93-TANrDsAA-164" style="edgeStyle=elbowEdgeStyle;rounded=0;orthogonalLoop=1;jettySize=auto;html=1;exitX=0;exitY=0.5;exitDx=0;exitDy=0;exitPerimeter=0;entryX=0;entryY=0.5;entryDx=0;entryDy=0;startArrow=none;startFill=0;endArrow=none;endFill=0;fontSize=20;" edge="1" parent="1" source="EKLjl7u4k93-TANrDsAA-160" target="EKLjl7u4k93-TANrDsAA-150">
          <mxGeometry relative="1" as="geometry">
            <Array as="points">
              <mxPoint x="-1675" y="855" />
            </Array>
          </mxGeometry>
        </mxCell>
        <mxCell id="EKLjl7u4k93-TANrDsAA-160" value="" style="shape=requiredInterface;html=1;verticalLabelPosition=bottom;fontSize=20;direction=south;" vertex="1" parent="1">
          <mxGeometry x="-1685" y="880" width="20" height="20" as="geometry" />
        </mxCell>
        <mxCell id="EKLjl7u4k93-TANrDsAA-169" style="edgeStyle=elbowEdgeStyle;rounded=0;orthogonalLoop=1;jettySize=auto;html=1;exitX=1;exitY=0.5;exitDx=0;exitDy=0;exitPerimeter=0;entryX=0.5;entryY=0;entryDx=0;entryDy=0;startArrow=none;startFill=0;endArrow=none;endFill=0;fontSize=20;" edge="1" parent="1" source="EKLjl7u4k93-TANrDsAA-168" target="EKLjl7u4k93-TANrDsAA-154">
          <mxGeometry relative="1" as="geometry" />
        </mxCell>
        <mxCell id="EKLjl7u4k93-TANrDsAA-170" style="edgeStyle=elbowEdgeStyle;rounded=0;orthogonalLoop=1;jettySize=auto;html=1;exitX=0;exitY=0.5;exitDx=0;exitDy=0;exitPerimeter=0;entryX=0.5;entryY=1;entryDx=0;entryDy=0;startArrow=none;startFill=0;endArrow=none;endFill=0;fontSize=20;" edge="1" parent="1" source="EKLjl7u4k93-TANrDsAA-168" target="EKLjl7u4k93-TANrDsAA-150">
          <mxGeometry relative="1" as="geometry" />
        </mxCell>
        <mxCell id="EKLjl7u4k93-TANrDsAA-168" value="" style="shape=requiredInterface;html=1;verticalLabelPosition=bottom;fontSize=20;direction=south;" vertex="1" parent="1">
          <mxGeometry x="-1505" y="930" width="20" height="20" as="geometry" />
        </mxCell>
        <mxCell id="EKLjl7u4k93-TANrDsAA-172" style="edgeStyle=elbowEdgeStyle;rounded=0;orthogonalLoop=1;jettySize=auto;html=1;exitX=0;exitY=0.5;exitDx=0;exitDy=0;exitPerimeter=0;startArrow=none;startFill=0;endArrow=none;endFill=0;fontSize=20;" edge="1" parent="1" source="EKLjl7u4k93-TANrDsAA-171" target="EKLjl7u4k93-TANrDsAA-150">
          <mxGeometry relative="1" as="geometry">
            <Array as="points">
              <mxPoint x="-1305" y="860" />
            </Array>
          </mxGeometry>
        </mxCell>
        <mxCell id="EKLjl7u4k93-TANrDsAA-173" style="edgeStyle=elbowEdgeStyle;rounded=0;orthogonalLoop=1;jettySize=auto;html=1;exitX=1;exitY=0.5;exitDx=0;exitDy=0;exitPerimeter=0;entryX=0.5;entryY=0;entryDx=0;entryDy=0;startArrow=none;startFill=0;endArrow=none;endFill=0;fontSize=20;" edge="1" parent="1" source="EKLjl7u4k93-TANrDsAA-171" target="EKLjl7u4k93-TANrDsAA-155">
          <mxGeometry relative="1" as="geometry" />
        </mxCell>
        <mxCell id="EKLjl7u4k93-TANrDsAA-171" value="" style="shape=requiredInterface;html=1;verticalLabelPosition=bottom;fontSize=20;direction=south;" vertex="1" parent="1">
          <mxGeometry x="-1315" y="910" width="20" height="20" as="geometry" />
        </mxCell>
        <mxCell id="EKLjl7u4k93-TANrDsAA-174" style="edgeStyle=elbowEdgeStyle;rounded=0;orthogonalLoop=1;jettySize=auto;html=1;entryX=0;entryY=1;entryDx=0;entryDy=0;startArrow=none;startFill=0;endArrow=none;endFill=0;fontSize=20;" edge="1" parent="1" target="EKLjl7u4k93-TANrDsAA-132">
          <mxGeometry relative="1" as="geometry">
            <mxPoint x="425" y="1530" as="sourcePoint" />
          </mxGeometry>
        </mxCell>
        <mxCell id="EKLjl7u4k93-TANrDsAA-179" value="issues" style="shape=rhombus;perimeter=rhombusPerimeter;whiteSpace=wrap;html=1;align=center;fontSize=20;" vertex="1" parent="1">
          <mxGeometry x="470" y="1170" width="120" height="60" as="geometry" />
        </mxCell>
      </root>
    </mxGraphModel>
  </diagram>
</mxfile>
